<svg xmlns="http://www.w3.org/2000/svg" width="32" height="32" viewBox="0 0 24 24"><!-- Icon from Huge Icons by Hugeicons - undefined --><g fill="none" stroke="currentColor" stroke-linecap="round" stroke-linejoin="round" stroke-width="1.5" color="currentColor"><path d="M10.29 21.961h-.9c-3.248 0-4.873 0-5.882-1.025S2.5 18.261 2.5 14.961v-5c0-3.3 0-4.95 1.01-5.974C4.517 2.96 6.142 2.96 9.39 2.96h2.953c3.249 0 5.147.056 6.156 1.08c1.01 1.026 1 2.62 1 5.92v1.187M15.945 2v2m-5-2v2m-5-2v2M7 15h4m-4-5h8"/><path d="M20.76 14.879c-.906-1.015-1.449-.954-2.052-.773c-.423.06-1.871 1.75-2.475 2.29c-.991.978-1.987 1.986-2.052 2.118c-.188.305-.362.845-.447 1.449c-.157.906-.383 1.925-.097 2.013s1.087-.08 1.992-.213c.604-.11 1.026-.23 1.328-.411c.423-.254 1.207-1.147 2.56-2.476c.847-.893 1.665-1.51 1.907-2.113c.241-.906-.12-1.39-.664-1.885" opacity=".93"/></g></svg>