<svg xmlns="http://www.w3.org/2000/svg" width="32" height="32" viewBox="0 0 24 24"><g fill="none" stroke="currentColor" stroke-linecap="round" stroke-linejoin="round" stroke-width="1.5" color="currentColor"><path d="M19.463 3.994c-2.682-1.645-5.023-.983-6.429.073c-.576.433-.864.65-1.034.65s-.458-.217-1.034-.65C9.56 3.011 7.219 2.35 4.537 3.994C1.018 6.152.222 13.274 8.34 19.283c1.546 1.144 2.319 1.716 3.66 1.716s2.114-.572 3.66-1.716c8.118-6.009 7.322-13.13 3.803-15.29"/><path d="M16 13h-1c-.455 0-.934.035-1.343-.279c-.156-.12-.26-.285-.466-.615L11.5 9l-3 5l-1.557-2.168c-.256-.307-.506-.619-.845-.742C5.852 11 5.568 11 5 11H3"/></g></svg>