<svg xmlns="http://www.w3.org/2000/svg" width="32" height="32" viewBox="0 0 24 24"><!-- Icon from Huge Icons by Hugeicons - undefined --><path fill="currentColor" fill-rule="evenodd" d="M20.25 7.572c-.41 0-.75-.34-.75-.75V5.678c-1.667 1.63-5.962 5.168-14.022 7.855a.7.7 0 0 1-.234.04a.75.75 0 0 1-.236-1.46c7.797-2.602 11.95-6.062 13.469-7.54H17.25c-.41 0-.75-.34-.75-.75s.34-.75.75-.75h3c.41 0 .75.34.75.75v3c0 .41-.34.75-.75.75m-15.006 6h.004h-.01zm14.506 9c-.53 0-.85 0-1.17-.13c-.43-.18-.77-.52-.95-.95c-.13-.32-.13-.64-.13-1.17v-9c0-.53 0-.85.13-1.17c.18-.43.52-.77.95-.95c.32-.13.64-.13 1.17-.13s.85 0 1.17.13c.43.18.77.52.95.95c.13.32.13.64.13 1.17v9c0 .53 0 .85-.13 1.17c-.18.43-.52.77-.95.95c-.32.13-.64.13-1.17.13m0-12c-.26 0-.53 0-.6.02c-.06.02-.1.07-.13.13c-.02.06-.02.33-.02.6v9c0 .26 0 .53.02.6c.02.06.07.11.13.13c.13.04 1.06.04 1.2 0c.06-.02.1-.07.13-.13c.02-.06.02-.33.02-.6v-9c0-.26 0-.53-.02-.6a.21.21 0 0 0-.13-.13c-.06-.02-.33-.02-.6-.02m-7 12c-.53 0-.85 0-1.17-.13c-.43-.18-.77-.52-.95-.95c-.13-.32-.13-.64-.13-1.17v-5.5c0-.53 0-.85.13-1.17c.18-.43.52-.77.95-.95c.32-.13.64-.13 1.17-.13s.85 0 1.17.13c.43.18.77.52.95.95c.13.32.13.64.13 1.17v5.5c0 .53 0 .85-.13 1.17c-.18.43-.52.77-.95.95c-.32.13-.64.13-1.17.13m0-8.5c-.26 0-.53 0-.6.02c-.06.02-.1.07-.13.13c-.02.06-.02.33-.02.6v5.5c0 .26 0 .53.02.6c.02.06.07.11.13.13c.13.04 1.06.04 1.2 0c.06-.02.1-.07.13-.13c.02-.06.02-.33.02-.6v-5.5c0-.26 0-.53-.02-.6a.21.21 0 0 0-.13-.13c-.06-.02-.33-.02-.6-.02m-8.17 8.37c.32.13.64.13 1.17.13s.85 0 1.17-.13c.43-.18.77-.52.95-.95c.13-.32.13-.64.13-1.17v-3c0-.53 0-.85-.13-1.17c-.18-.43-.52-.77-.95-.95c-.32-.13-.64-.13-1.17-.13s-.85 0-1.17.13c-.43.18-.77.52-.95.95c-.13.32-.13.64-.13 1.17v3c0 .53 0 .85.13 1.17c.18.43.52.77.95.95m.57-5.85c.07-.02.34-.02.6-.02c.27 0 .54 0 .6.02s.11.07.13.13c.02.07.02.34.02.6v3c0 .27 0 .54-.02.6c-.03.06-.07.11-.13.13c-.14.04-1.07.04-1.2 0a.21.21 0 0 1-.13-.13c-.02-.07-.02-.34-.02-.6v-3c0-.27 0-.54.02-.6c.03-.06.07-.11.13-.13" color="currentColor"/></svg>