<svg xmlns="http://www.w3.org/2000/svg" width="32" height="32" viewBox="0 0 24 24"><!-- Icon from Huge Icons by Hugeicons - undefined --><g fill="none" stroke="currentColor" stroke-linecap="round" stroke-linejoin="round" stroke-width="1.5" color="currentColor"><path d="M15.5 12a3.5 3.5 0 1 1-7 0a3.5 3.5 0 0 1 7 0"/><path d="M21.011 14.097c.522-.141.783-.212.886-.346c.103-.135.103-.351.103-.784v-1.934c0-.433 0-.65-.103-.784s-.364-.205-.886-.345c-1.95-.526-3.171-2.565-2.668-4.503c.139-.533.208-.8.142-.956s-.256-.264-.635-.479l-1.725-.98c-.372-.21-.558-.316-.725-.294s-.356.21-.733.587c-1.459 1.455-3.873 1.455-5.333 0c-.377-.376-.565-.564-.732-.587c-.167-.022-.353.083-.725.295l-1.725.979c-.38.215-.57.323-.635.48c-.066.155.003.422.141.955c.503 1.938-.718 3.977-2.669 4.503c-.522.14-.783.21-.886.345S2 10.6 2 11.033v1.934c0 .433 0 .65.103.784s.364.205.886.346c1.95.526 3.171 2.565 2.668 4.502c-.139.533-.208.8-.142.956s.256.264.635.48l1.725.978c.372.212.558.317.725.295s.356-.21.733-.587c1.46-1.457 3.876-1.457 5.336 0c.377.376.565.564.732.587c.167.022.353-.083.726-.295l1.724-.979c.38-.215.57-.323.635-.48s-.003-.422-.141-.955c-.504-1.937.716-3.976 2.666-4.502"/></g></svg>