<svg xmlns="http://www.w3.org/2000/svg" width="32" height="32" viewBox="0 0 24 24"><!-- Icon from Huge Icons by Hugeicons - undefined --><path fill="none" stroke="currentColor" stroke-linecap="round" stroke-linejoin="round" stroke-width="1.5" d="M5.18 15.296c-1.258.738-4.555 2.243-2.547 4.126c.982.92 2.074 1.578 3.448 1.578h7.838c1.374 0 2.467-.658 3.447-1.578c2.009-1.883-1.288-3.389-2.546-4.126a9.61 9.61 0 0 0-9.64 0M14 7a4 4 0 1 1-8 0a4 4 0 0 1 8 0m8-2.5L19.5 7m0 0L17 9.5M19.5 7L22 9.5M19.5 7L17 4.5" color="currentColor"/></svg>