<svg xmlns="http://www.w3.org/2000/svg" width="32" height="32" viewBox="0 0 24 24"><!-- Icon from Huge Icons by Hugeicons - undefined --><g fill="none" stroke="currentColor" stroke-linecap="round" stroke-linejoin="round" stroke-width="1.5" color="currentColor"><path d="M2.5 8.187c.104-2.1.415-3.41 1.347-4.34c.93-.932 2.24-1.243 4.34-1.347M21.5 8.187c-.104-2.1-.415-3.41-1.347-4.34c-.93-.932-2.24-1.243-4.34-1.347m0 19c2.1-.104 3.41-.415 4.34-1.347c.932-.93 1.243-2.24 1.347-4.34M8.187 21.5c-2.1-.104-3.41-.415-4.34-1.347c-.932-.93-1.243-2.24-1.347-4.34m14-.313V11a4.5 4.5 0 1 0-9 0v4.5"/><path d="M13.5 12.5V11a1.5 1.5 0 0 0-3 0v5.5m3-1v2"/></g></svg>