<svg xmlns="http://www.w3.org/2000/svg" width="32" height="32" viewBox="0 0 24 24"><!-- Icon from Huge Icons by Hugeicons - undefined --><g fill="none" stroke="currentColor" stroke-linecap="round" stroke-linejoin="round" stroke-width="1.5" color="currentColor"><path d="M2 7h2.865c.727 0 1.424-.36 1.938-1c.733-.914 1.819-1.234 2.804-.825L11 5.754M2 15.967h1.62c1.16 0 1.74 0 2.288.154l.08.024c.545.165 1.027.476 1.992 1.098c1.888 1.217 2.832 1.825 3.86 1.751l.146-.014c1.024-.122 1.826-.898 3.43-2.45L17 15"/><path d="M22 7.234h-2.517c-1.066 0-1.818-.58-2.583-1.351a2.76 2.76 0 0 0-1.791-.836c-.743-.045-1.604-.11-2.325.089c-.803.22-1.333.825-1.894 1.456l-1.447 1.63c-.59.664-.59 1.743 0 2.408c.51.574 1.309.663 1.909.212c.432-.324.922-.847 1.431-1.012c.573-.185.928.232 1.252.67l2.32 3.134c.862 1.164 1.292 1.745 1.88 2.056c.59.31 1.262.31 2.607.31H22"/></g></svg>