<svg xmlns="http://www.w3.org/2000/svg" width="32" height="32" viewBox="0 0 24 24"><!-- Icon from Huge Icons by Hugeicons - undefined --><g fill="none" stroke="currentColor" stroke-linecap="round" stroke-linejoin="round" stroke-width="1.5" color="currentColor"><path d="m2 5l6.913 3.925c2.526 1.433 3.648 1.433 6.174 0L22 5"/><path d="M10.5 19.5a116 116 0 0 1-1.401-.027c-3.149-.079-4.723-.118-5.854-1.255c-1.131-1.136-1.164-2.67-1.23-5.737a69 69 0 0 1 0-2.953c.066-3.067.099-4.6 1.23-5.737C4.376 2.655 5.95 2.616 9.099 2.537a115 115 0 0 1 5.802 0c3.149.079 4.723.118 5.854 1.254s1.164 2.67 1.23 5.737c.009.455.014.668.015.972"/><path d="M19 17a1.5 1.5 0 1 1-3 0a1.5 1.5 0 0 1 3 0m0 0v.5a1.5 1.5 0 0 0 3 0V17a4.5 4.5 0 1 0-4.5 4.5"/></g></svg>