<svg xmlns="http://www.w3.org/2000/svg" width="32" height="32" viewBox="0 0 24 24"><!-- Icon from Huge Icons by Hugeicons - undefined --><path fill="currentColor" fill-rule="evenodd" d="M16.478 1.722c-1.14-.15-2.6-.15-4.43-.15s-3.41 0-4.55.15c-1.17.16-2.12.49-2.87 1.24s-1.08 1.7-1.24 2.87c-.15 1.14-.15 2.6-.15 4.43v4.65c0 1.58 0 2.84.12 3.83c.12 1.02.37 1.86.94 2.56q.315.405.72.72c.7.57 1.54.82 2.56.93c.99.12 2.4.12 3.98.12c.6 0 1.08 0 1.53-.16c.09-.03.18-.07.27-.11c.43-.2.76-.54 1.19-.97l4.9-4.89c.5-.5.89-.89 1.1-1.4c.21-.5.21-1.06.21-1.76v-3.52c0-1.83 0-3.29-.15-4.43c-.16-1.17-.49-2.12-1.24-2.87s-1.7-1.08-2.87-1.24zm-10.79 2.3c.42-.42 1-.67 2.01-.81c1.03-.14 2.38-.14 4.29-.14s3.26 0 4.29.14c1.01.14 1.59.39 2.01.81c.42.43.68 1 .81 2.01c.14 1.03.14 2.38.14 4.29v3.34c0 .44 0 .72-.02.91c-1.37 0-2.76 0-3.62.12c-.9.12-1.66.38-2.26.98s-.86 1.36-.98 2.26c-.12.87-.12 2.26-.12 3.63c0 0-.41.01-.79.01c-1.64 0-2.81 0-3.7-.11c-.88-.1-1.4-.29-1.79-.61c-.18-.15-.35-.31-.49-.49c-.32-.39-.51-.92-.61-1.79c-.11-.9-.11-2.07-.11-3.71v-4.54c0-1.91 0-3.26.14-4.29c.14-1.01.39-1.58.81-2.01zm10.11 12.15c.6-.08 1.36-.1 2.38-.1l-4.44 4.44c0-1.02.02-1.78.1-2.38c.1-.74.28-1.12.56-1.4s.66-.46 1.4-.56" color="currentColor"/></svg>