<svg xmlns="http://www.w3.org/2000/svg" width="32" height="32" viewBox="0 0 24 24"><!-- Icon from Huge Icons by Hugeicons - undefined --><g fill="none" stroke="currentColor" stroke-linecap="round" stroke-linejoin="round" stroke-width="1.5" color="currentColor"><path d="M7.354 18c-2.123 0-3.185 0-3.94-.453a3.04 3.04 0 0 1-1.15-1.223c-.392-.77-.287-1.787-.075-3.822c.176-1.698.264-2.547.698-3.171c.285-.41.67-.745 1.121-.977C4.695 8 5.582 8 7.354 8h9.292c1.772 0 2.659 0 3.346.354c.451.232.836.567 1.121.977c.434.624.522 1.473.698 3.172c.212 2.034.317 3.052-.076 3.821a3.04 3.04 0 0 1-1.148 1.223C19.83 18 18.769 18 16.646 18M17 8V6c0-1.886 0-2.828-.586-3.414S14.886 2 13 2h-2c-1.886 0-2.828 0-3.414.586S7 4.114 7 6v2"/><path d="M13.989 16H10.01c-.685 0-1.028 0-1.32.109a1.87 1.87 0 0 0-.945.8c-.168.281-.251.642-.417 1.363c-.26 1.128-.39 1.691-.301 2.143c.117.602.484 1.112.995 1.382c.382.203.918.203 1.988.203h3.978c1.07 0 1.606 0 1.988-.203c.51-.27.878-.78.995-1.382c.089-.452-.041-1.015-.3-2.143c-.167-.72-.25-1.082-.418-1.362a1.87 1.87 0 0 0-.946-.801C15.017 16 14.674 16 13.988 16M18 12h.009"/></g></svg>