<svg xmlns="http://www.w3.org/2000/svg" width="32" height="32" viewBox="0 0 24 24"><!-- Icon from Huge Icons by Hugeicons - undefined --><g fill="none" stroke="currentColor" stroke-linecap="round" stroke-linejoin="round" stroke-width="1.5" color="currentColor"><path d="M17 2v2m-5-2v2M7 2v2m-3.5 6c0-3.3 0-4.95 1.025-5.975S7.2 3 10.5 3h3c3.3 0 4.95 0 5.975 1.025S20.5 6.7 20.5 10v5c0 3.3 0 4.95-1.025 5.975S16.8 22 13.5 22h-3c-3.3 0-4.95 0-5.975-1.025S3.5 18.3 3.5 15zm10 6H17m-3.5-7H17"/><path d="M7 10s.5 0 1 1c0 0 1.588-2.5 3-3m-4 9s.5 0 1 1c0 0 1.588-2.5 3-3"/></g></svg>