<svg xmlns="http://www.w3.org/2000/svg" width="32" height="32" viewBox="0 0 24 24"><!-- Icon from Huge Icons by Hugeicons - undefined --><path fill="currentColor" fill-rule="evenodd" d="M3.75 4.25C3.75 5.77 4.98 7 6.5 7s2.75-1.23 2.75-2.75S8.02 1.5 6.5 1.5S3.75 2.73 3.75 4.25m1.5 0a1.25 1.25 0 1 1 2.5 0a1.25 1.25 0 0 1-2.5 0m10.02 18.24c.51.51 1.16.51 2.23.51s1.72 0 2.24-.52c.51-.51.51-1.16.51-2.23v-2.76c.86-.03 1.52-.19 1.85-.9c.348-.755.054-1.54-.48-2.965l-.01-.025l-1.24-3.32C19.85 8.87 18.75 8 17.5 8s-2.35.88-2.87 2.28l-1.24 3.32l-.009.025c-.534 1.424-.828 2.21-.48 2.975c.33.7.99.86 1.85.89v2.76c0 1.07 0 1.71.52 2.24m.77-11.69c.29-.79.86-1.3 1.46-1.3l.02.02c.59 0 1.17.51 1.46 1.3l1.24 3.32c.32.84.62 1.64.57 1.79c-.14.08-.77.08-1.28.08c-.41 0-.75.34-.75.75v3.5c0 .5 0 1.11-.07 1.18c-.22.14-2.15.13-2.35 0c-.08-.09-.08-.7-.08-1.19v-3.5c0-.41-.34-.75-.75-.75c-.51 0-1.14 0-1.24-.03c-.09-.2.21-1 .53-1.85zM17.5 7c-1.52 0-2.75-1.23-2.75-2.75S15.98 1.5 17.5 1.5s2.75 1.23 2.75 2.75S19.02 7 17.5 7m0-4a1.25 1.25 0 1 0 0 2.5a1.25 1.25 0 0 0 0-2.5M4.27 22.49c.51.51 1.16.51 2.23.51s1.72 0 2.24-.52c.51-.51.51-1.16.51-2.23v-2.76c.65-.03 1.1-.13 1.49-.51c.51-.51.51-1.16.51-2.23v-2c0-2.03 0-3.14-.8-3.94C9.64 8 8.52 8 6.5 8s-3.14 0-3.94.81c-.81.8-.81 1.91-.81 3.94v2c0 1.07 0 1.71.52 2.24c.38.38.83.48 1.48.5v2.76c0 1.07 0 1.71.52 2.24M3.62 9.87c.35-.36 1.13-.37 2.88-.37v.01c1.75 0 2.54.01 2.89.37c.35.35.36 1.13.36 2.88v2c0 .5 0 1.11-.07 1.18c-.11.07-.68.07-1.18.07c-.41 0-.75.34-.75.75v3.5c0 .5 0 1.11-.07 1.18c-.22.14-2.15.13-2.35 0c-.08-.09-.08-.7-.08-1.19v-3.5c0-.41-.34-.75-.75-.75c-.5 0-1.07 0-1.17-.06c-.08-.09-.08-.7-.08-1.19v-2c0-1.74.02-2.53.37-2.88" color="currentColor"/></svg>