<svg xmlns="http://www.w3.org/2000/svg" width="32" height="32" viewBox="0 0 24 24"><path fill="none" stroke="currentColor" stroke-linecap="round" stroke-linejoin="round" stroke-width="1.5" d="M3.778 11.942C2.83 10.29 2.372 8.94 2.096 7.572c-.408-2.024.526-4.001 2.073-5.263c.654-.533 1.404-.35 1.791.343l.873 1.567c.692 1.242 1.038 1.862.97 2.52c-.069.659-.536 1.195-1.469 2.267zm0 0c1.919 3.346 4.93 6.36 8.28 8.28m0 0c1.653.948 3.002 1.406 4.37 1.682c2.024.408 4.001-.526 5.262-2.073c.534-.654.351-1.404-.342-1.791l-1.567-.873c-1.242-.692-1.862-1.038-2.52-.97c-.659.069-1.195.536-2.267 1.469z" color="currentColor"/></svg>