<svg xmlns="http://www.w3.org/2000/svg" width="32" height="32" viewBox="0 0 24 24"><!-- Icon from Huge Icons by Hugeicons - undefined --><g fill="none" stroke="currentColor" stroke-linecap="round" stroke-linejoin="round" stroke-width="1.5" color="currentColor"><path d="M14.17 20.89c4.184-.277 7.516-3.657 7.79-7.9c.053-.83.053-1.69 0-2.52c-.274-4.242-3.606-7.62-7.79-7.899a33 33 0 0 0-4.34 0c-4.184.278-7.516 3.657-7.79 7.9a20 20 0 0 0 0 2.52c.1 1.545.783 2.976 1.588 4.184c.467.845.159 1.9-.328 2.823c-.35.665-.526.997-.385 1.237c.14.24.455.248 1.084.263c1.245.03 2.084-.322 2.75-.813c.377-.279.566-.418.696-.434s.387.09.899.3c.46.19.995.307 1.485.34c1.425.094 2.914.094 4.342 0"/><path d="M10.5 9.538C10.5 8.688 11.172 8 12 8s1.5.689 1.5 1.538c0 .307-.087.592-.238.832c-.448.714-1.262 1.396-1.262 2.245V13m0 2h.009"/></g></svg>