<svg xmlns="http://www.w3.org/2000/svg" width="32" height="32" viewBox="0 0 24 24"><!-- Icon from Huge Icons by Hugeicons - undefined --><path fill="currentColor" fill-rule="evenodd" d="M4.146 21.682c1.39 1.39 3.38 1.39 7.36 1.39h1c3.98 0 5.97 0 7.36-1.39s1.39-3.39 1.39-7.36v-4c0-3.98 0-5.97-1.39-7.36s-3.38-1.39-7.36-1.39h-.5c-.41 0-.75.34-.75.75s.34.75.75.75h.5c3.56 0 5.35 0 6.3.95s.95 2.74.95 6.3v4c0 3.56 0 5.35-.95 6.3s-2.74.95-6.3.95h-1c-3.56 0-5.35 0-6.3-.95s-.95-2.74-.95-6.3v-5c0-.41-.34-.75-.75-.75s-.75.34-.75.75v5c0 3.98 0 5.97 1.39 7.36m9.36-3.61h4c.41 0 .75-.34.75-.75s-.34-.75-.75-.75h-4c-.41 0-.75.34-.75.75s.34.75.75.75m4-10h-4c-.41 0-.75-.34-.75-.75s.34-.75.75-.75h4c.41 0 .75.34.75.75s-.34.75-.75.75m-4 5h4c.41 0 .75-.34.75-.75s-.34-.75-.75-.75h-4c-.41 0-.75.34-.75.75s.34.75.75.75m-5.5 6c-.3 0-.57-.18-.69-.45c-.351-.816-.936-1.046-1.012-1.077l-.008-.003a.76.76 0 0 1-.5-.93c.12-.39.52-.62.91-.51c.09.02.61.18 1.15.69c.54-1.05 1.47-2.47 2.82-3.14c.37-.19.82-.03 1.01.34s.04.82-.34 1.01c-1.69.85-2.61 3.54-2.62 3.57c-.1.29-.37.5-.68.51h-.03zm-1.45-10.22c.15.15.34.22.53.22s.38-.08.53-.22s.41-.35.72-.6c1.42-1.15 2.42-2.02 2.42-2.93s-1-1.79-2.42-2.93c-.31-.24-.57-.45-.72-.6a.754.754 0 0 0-1.06 0c-.29.29-.29.77 0 1.06c.17.17.47.42.83.71l.141.116c.288.235.701.572 1.05.894h-5.08c-.41 0-.75.34-.75.75s.34.75.75.75h5.08c-.41.38-.9.78-1.19 1.01l-.17.14c-.279.23-.519.428-.66.57c-.29.29-.29.77 0 1.06" color="currentColor"/></svg>