<svg xmlns="http://www.w3.org/2000/svg" width="32" height="32" viewBox="0 0 24 24"><!-- Icon from Huge Icons by Hugeicons - undefined --><g fill="none" stroke="currentColor" stroke-linecap="round" stroke-linejoin="round" stroke-width="1.5" color="currentColor"><path d="M2 12c0-4.243 0-6.364 1.464-7.682C4.93 3 7.286 3 12 3s7.071 0 8.535 1.318S22 7.758 22 12s0 6.364-1.465 7.682C19.072 21 16.714 21 12 21s-7.071 0-8.536-1.318S2 16.242 2 12"/><path d="M8.4 8h-.8c-.754 0-1.131 0-1.366.234C6 8.47 6 8.846 6 9.6v.8c0 .754 0 1.131.234 1.366C6.47 12 6.846 12 7.6 12h.8c.754 0 1.131 0 1.366-.234C10 11.53 10 11.154 10 10.4v-.8c0-.754 0-1.131-.234-1.366C9.53 8 9.154 8 8.4 8M6 16h4m4-8h4m-4 4h4m-4 4h4"/></g></svg>