<svg xmlns="http://www.w3.org/2000/svg" width="32" height="32" viewBox="0 0 24 24"><!-- Icon from Huge Icons by Hugeicons - undefined --><path fill="currentColor" fill-rule="evenodd" d="M14.746 6.496c0 1.52 1.23 2.75 2.75 2.75s2.75-1.23 2.75-2.75s-1.23-2.75-2.75-2.75s-2.75 1.23-2.75 2.75m1.5 0a1.25 1.25 0 1 1 2.501.001a1.25 1.25 0 0 1-2.5 0m-7.5 4.5c0 1.79 1.46 3.25 3.25 3.25s3.25-1.46 3.25-3.25s-1.46-3.25-3.25-3.25s-3.25 1.46-3.25 3.25m1.5 0c0-.96.79-1.75 1.75-1.75s1.75.79 1.75 1.75s-.79 1.75-1.75 1.75s-1.75-.79-1.75-1.75m5.5 8.5c0 .41.34.75.75.75v.01c.41 0 .75-.34.75-.75c0-1.35-.54-2.48-1.47-3.11c-2.25-1.5-5.31-1.5-7.57 0c-.93.62-1.46 1.76-1.46 3.1c0 .41.34.75.75.75s.75-.35.75-.75s.08-1.38.8-1.86c1.76-1.17 4.15-1.16 5.9 0c.72.49.8 1.45.8 1.86m5.75-4.3c-.41 0-.75-.29-.75-.7c0-.57-.09-1.42-.71-1.88c-.76-.57-1.64-.87-2.54-.87c-.41 0-.75-.34-.75-.75s.34-.75.75-.75c1.23 0 2.42.4 3.45 1.17c.84.64 1.3 1.7 1.3 2.98c0 .41-.34.8-.75.8m-19 0c-.41 0-.75-.29-.75-.7c0-1.38.46-2.44 1.3-3.08c1.03-.77 2.22-1.17 3.45-1.17c.41 0 .75.34.75.75s-.34.75-.75.75c-.91 0-1.79.3-2.55.87c-.61.46-.7 1.31-.7 1.78c0 .41-.34.8-.75.8m1.25-8.7c0 1.52 1.23 2.75 2.75 2.75s2.75-1.23 2.75-2.75s-1.23-2.75-2.75-2.75s-2.75 1.23-2.75 2.75m1.5 0a1.25 1.25 0 1 1 2.501.001a1.25 1.25 0 0 1-2.5 0" color="currentColor"/></svg>