<svg xmlns="http://www.w3.org/2000/svg" width="32" height="32" viewBox="0 0 24 24"><!-- Icon from Huge Icons by Hugeicons - undefined --><path fill="none" stroke="currentColor" stroke-linecap="round" stroke-linejoin="round" stroke-width="1.5" d="M10.247 6.74c.826.827 1.24 1.24 1.753 1.24c.514 0 .927-.413 1.753-1.24h0l1.754-1.753h0c.407-.408.611-.612.823-.734c1.066-.616 1.945-.005 2.683.734c.739.738 1.35 1.617.734 2.683c-.122.212-.326.416-.734.823l-1.753 1.754c-.827.826-1.24 1.24-1.24 1.753c0 .514.413.927 1.24 1.753l1.753 1.754c.408.407.612.611.734.823c.616 1.066.005 1.945-.734 2.683c-.738.739-1.617 1.35-2.683.734c-.212-.122-.416-.326-.823-.734l-1.754-1.753h0c-.826-.826-1.24-1.24-1.753-1.24c-.514 0-.927.414-1.753 1.24h0l-1.754 1.753c-.407.408-.611.612-.823.734c-1.066.616-1.945.005-2.683-.734c-.739-.738-1.35-1.617-.734-2.683c.122-.212.326-.416.734-.823l1.753-1.754c.827-.826 1.24-1.24 1.24-1.753c0-.514-.414-.927-1.24-1.753L4.987 8.493c-.408-.407-.612-.611-.734-.823c-.616-1.066-.005-1.945.734-2.683c.738-.739 1.617-1.35 2.683-.734c.212.122.416.326.823.734h0z" color="currentColor"/></svg>