<svg xmlns="http://www.w3.org/2000/svg" width="32" height="32" viewBox="0 0 24 24"><!-- Icon from Huge Icons by Hugeicons - undefined --><g fill="none" stroke="currentColor" stroke-linecap="round" stroke-linejoin="round" stroke-width="1.5" color="currentColor"><path d="m2 5.5l6.913 3.925c2.526 1.433 3.648 1.433 6.174 0L22 5.5"/><path d="M11.5 20s-1.43-.012-2.401-.037c-3.149-.079-4.723-.118-5.854-1.254c-1.131-1.135-1.164-2.668-1.23-5.733a69 69 0 0 1 0-2.952c.066-3.065.099-4.598 1.23-5.733C4.376 3.155 5.95 3.116 9.099 3.037a115 115 0 0 1 5.802 0c3.149.079 4.723.118 5.854 1.254c1.131 1.135 1.164 2.668 1.23 5.733c.007.357.012.976.014 1.476M14 17h8m-4 4v-8"/></g></svg>