<svg xmlns="http://www.w3.org/2000/svg" width="32" height="32" viewBox="0 0 24 24"><!-- Icon from Huge Icons by Hugeicons - undefined --><path fill="none" stroke="currentColor" stroke-linecap="round" stroke-linejoin="round" stroke-width="1.5" d="m5.684 13.143l6.842 3.463L22 11.66v2.793c0 .72-.415 1.381-1.083 1.73l-6.356 3.32a4.45 4.45 0 0 1-4.074.008l-5.712-2.953C3.063 15.672 2 13.98 2 12.145m0 0c0-2.042 2.286-3.37 4.228-2.457l6.298 2.96L22 7.701l-6.28-3.126a5.56 5.56 0 0 0-5.233.166L4.23 8.382C2.843 9.19 2 10.612 2 12.145" color="currentColor"/></svg>