<svg xmlns="http://www.w3.org/2000/svg" width="32" height="32" viewBox="0 0 24 24"><!-- Icon from Huge Icons by Hugeicons - undefined --><path fill="none" stroke="currentColor" stroke-linecap="round" stroke-linejoin="round" stroke-width="1.5" d="M7.5 17.5v-11c0-.935 0-1.402-.201-1.75a1.5 1.5 0 0 0-.549-.549C6.402 4 5.935 4 5 4s-1.402 0-1.75.201a1.5 1.5 0 0 0-.549.549C2.5 5.098 2.5 5.565 2.5 6.5v11c0 .935 0 1.402.201 1.75a1.5 1.5 0 0 0 .549.549C3.598 20 4.065 20 5 20s1.402 0 1.75-.201a1.5 1.5 0 0 0 .549-.549c.201-.348.201-.815.201-1.75m5 0v-8c0-.935 0-1.402-.201-1.75a1.5 1.5 0 0 0-.549-.549C11.402 7 10.935 7 10 7s-1.402 0-1.75.201a1.5 1.5 0 0 0-.549.549C7.5 8.098 7.5 8.565 7.5 9.5v8c0 .935 0 1.402.201 1.75a1.5 1.5 0 0 0 .549.549C8.598 20 9.065 20 10 20s1.402 0 1.75-.201a1.5 1.5 0 0 0 .549-.549c.201-.348.201-.815.201-1.75m6.18-7.72c-.32-.878-.48-1.318-.788-1.576a1.5 1.5 0 0 0-.704-.328c-.396-.07-.835.09-1.714.41c-.878.32-1.317.48-1.575.788a1.5 1.5 0 0 0-.328.703c-.07.396.09.835.409 1.713l2.395 6.588c.32.88.48 1.319.788 1.577a1.5 1.5 0 0 0 .704.328c.396.07.835-.09 1.714-.41c.878-.32 1.317-.48 1.575-.788a1.5 1.5 0 0 0 .328-.703c.07-.395-.09-.835-.409-1.713z" color="currentColor"/></svg>